<svg xmlns="http://www.w3.org/2000/svg" viewBox="-2 -2 42 24"
     width="840" height="480">
  <path d="M 5.0,19.8 L 31.0,19.8 L 36.0,14.8 L 31.0,9.8 L 30.5,9.8 L 28.5,6.300000000000001 L 23.5,6.300000000000001 L 23.05,5.0 L 35.5,5.0 L 35.5,5.4 L 38.0,5.4 L 38.0,3.0 L 35.5,3.0 L 35.5,3.400000000000002 L 22.49,3.400000000000002 L 22.0,2.0 L 19.5,2.0 L 19.5,0.1999999999999993 L 15.0,0.1999999999999993 L 15.0,2.0 L 13.5,2.0 L 12.0,6.300000000000001 L 9.0,6.300000000000001 L 7.0,9.8 L 5.0,9.8 L 0.0,14.8 Z M 7.0,17.3 L 28.5,17.3 L 31.0,14.8 L 28.5,12.3 L 7.0,12.3 L 4.5,14.8 Z" fill="#cccccc" fill-rule="evenodd"
        stroke="black" stroke-width="0.4"/>
</svg>
