<svg xmlns="http://www.w3.org/2000/svg" viewBox="-2 -2 40 23"
     width="800" height="460">
  <path d="M 5.0,19.0 L 31.0,19.0 A 5.0990 5.0990 0 0 0 29.0,9.0 L 29.0,6.0 L 24.0,6.0 L 24.0,4.5 L 36.0,4.5 L 36.0,2.8000000000000007 L 24.0,2.8000000000000007 L 24.0,1.5 A 1.5000 1.5000 0 0 0 22.5,0.0 L 13.5,0.0 A 1.5000 1.5000 0 0 0 12.0,1.5 L 12.0,6.0 L 7.0,6.0 L 7.0,9.0 L 5.0,9.0 A 5.0000 5.0000 0 0 0 5.0,19.0 Z" fill="#cccccc" stroke="black" stroke-width="0.4"/>
  <circle cx="8.0" cy="14.0" r="2.5" fill="white" stroke="black" stroke-width="0.4"/>
  <circle cx="15.0" cy="14.0" r="2.5" fill="white" stroke="black" stroke-width="0.4"/>
  <circle cx="22.0" cy="14.0" r="2.5" fill="white" stroke="black" stroke-width="0.4"/>
  <circle cx="29.0" cy="14.0" r="2.5" fill="white" stroke="black" stroke-width="0.4"/>
</svg>
